<svg xmlns="http://www.w3.org/2000/svg" xmlns:xlink="http://www.w3.org/1999/xlink" width="500" zoomAndPan="magnify" viewBox="0 0 375 374.999991" height="500" preserveAspectRatio="xMidYMid meet" version="1.0"><defs><g/><clipPath id="ad959196f8"><path d="M 57.351562 172.328125 L 316.363281 172.328125 L 316.363281 202.378906 L 57.351562 202.378906 Z M 57.351562 172.328125 " clip-rule="nonzero"/></clipPath></defs><g fill="#000000" fill-opacity="1"><g transform="translate(187.902411, 242.722733)"><g><path d="M 36.953125 -59.1875 L 50.453125 -59.1875 C 52.960938 -59.1875 54.957031 -58.8125 56.4375 -58.0625 C 57.925781 -57.320312 59.097656 -56.269531 59.953125 -54.90625 C 60.804688 -53.539062 61.460938 -51.882812 61.921875 -49.9375 C 62.378906 -48 62.832031 -45.835938 63.28125 -43.453125 C 63.625 -41.847656 64.082031 -41.046875 64.65625 -41.046875 C 65.34375 -41.046875 65.6875 -41.789062 65.6875 -43.28125 L 65.6875 -78 C 65.6875 -79.363281 65.34375 -80.046875 64.65625 -80.046875 C 64.082031 -80.046875 63.625 -79.25 63.28125 -77.65625 C 62.832031 -75.257812 62.378906 -73.09375 61.921875 -71.15625 C 61.460938 -69.21875 60.804688 -67.5625 59.953125 -66.1875 C 59.097656 -64.820312 57.925781 -63.769531 56.4375 -63.03125 C 54.957031 -62.289062 52.960938 -61.921875 50.453125 -61.921875 L 36.953125 -61.921875 L 36.953125 -112.203125 L 62.9375 -112.203125 C 66.820312 -112.203125 70.070312 -111.257812 72.6875 -109.375 C 75.3125 -107.5 77.421875 -105.164062 79.015625 -102.375 C 80.617188 -99.582031 81.789062 -96.613281 82.53125 -93.46875 C 83.269531 -90.332031 83.695312 -87.515625 83.8125 -85.015625 C 83.8125 -83.410156 84.269531 -82.609375 85.1875 -82.609375 C 85.976562 -82.609375 86.375 -83.351562 86.375 -84.84375 L 86.375 -110.84375 C 86.375 -113.570312 84.953125 -114.9375 82.109375 -114.9375 L 5.640625 -114.9375 L 5.640625 -112.203125 L 20.359375 -112.203125 L 20.359375 -2.734375 L 5.8125 -2.734375 L 5.8125 0 L 86.203125 0 C 89.515625 0 91.171875 -1.820312 91.171875 -5.46875 L 91.171875 -31.125 C 91.171875 -33.863281 90.710938 -35.234375 89.796875 -35.234375 C 89.003906 -35.234375 88.378906 -34.035156 87.921875 -31.640625 C 87.003906 -27.304688 86.03125 -23.367188 85 -19.828125 C 83.976562 -16.296875 82.613281 -13.25 80.90625 -10.6875 C 79.195312 -8.125 77.03125 -6.15625 74.40625 -4.78125 C 71.78125 -3.414062 68.472656 -2.734375 64.484375 -2.734375 L 36.953125 -2.734375 Z M 36.953125 -59.1875 "/></g></g></g><g fill="#000000" fill-opacity="1"><g transform="translate(98.485624, 245.249984)"><g><path d="M 61.859375 -116.765625 L 15.984375 -116.765625 L 15.984375 -113.984375 L 31.96875 -113.984375 L 31.96875 -3.125 C 31.96875 3.125 31.097656 7.609375 29.359375 10.328125 C 27.617188 13.054688 24.550781 14.421875 20.15625 14.421875 C 17.84375 14.421875 15.695312 13.984375 13.71875 13.109375 C 11.75 12.242188 10.1875 11.0625 9.03125 9.5625 C 11.8125 9.5625 13.894531 8.71875 15.28125 7.03125 C 16.675781 5.351562 17.375 3.238281 17.375 0.6875 C 17.375 -1.28125 16.734375 -3.046875 15.453125 -4.609375 C 14.179688 -6.171875 12.332031 -6.953125 9.90625 -6.953125 C 7.238281 -6.953125 5.265625 -6.109375 3.984375 -4.421875 C 2.710938 -2.742188 2.078125 -0.578125 2.078125 2.078125 C 2.078125 3.703125 2.484375 5.410156 3.296875 7.203125 C 4.109375 9.003906 5.320312 10.65625 6.9375 12.15625 C 8.5625 13.664062 10.5625 14.941406 12.9375 15.984375 C 15.3125 17.023438 18.066406 17.546875 21.203125 17.546875 C 39.617188 17.546875 48.828125 8.453125 48.828125 -9.734375 L 48.828125 -113.984375 L 61.859375 -113.984375 Z M 61.859375 -116.765625 "/></g></g></g><g clip-path="url(#ad959196f8)"><path fill="#fafafa" d="M 57.351562 172.328125 L 316.421875 172.328125 L 316.421875 202.378906 L 57.351562 202.378906 Z M 57.351562 172.328125 " fill-opacity="1" fill-rule="nonzero"/></g><g fill="#000000" fill-opacity="1"><g transform="translate(82.105135, 191.496863)"><g><path d="M 2.859375 0.15625 C 2.210938 0.15625 1.625 0.0390625 1.09375 -0.1875 C 0.5625 -0.425781 0.125 -0.765625 -0.21875 -1.203125 L 1 -2.65625 C 1.507812 -1.96875 2.09375 -1.625 2.75 -1.625 C 3.632812 -1.625 4.078125 -2.144531 4.078125 -3.1875 L 4.078125 -7.671875 L 0.765625 -7.671875 L 0.765625 -9.421875 L 6.25 -9.421875 L 6.25 -3.3125 C 6.25 -2.15625 5.957031 -1.285156 5.375 -0.703125 C 4.800781 -0.128906 3.960938 0.15625 2.859375 0.15625 Z M 2.859375 0.15625 "/></g></g></g><g fill="#000000" fill-opacity="1"><g transform="translate(94.03288, 191.496863)"><g><path d="M 8.40625 -1.75 L 8.40625 0 L 1.109375 0 L 1.109375 -9.421875 L 8.234375 -9.421875 L 8.234375 -7.671875 L 3.28125 -7.671875 L 3.28125 -5.625 L 7.65625 -5.625 L 7.65625 -3.921875 L 3.28125 -3.921875 L 3.28125 -1.75 Z M 8.40625 -1.75 "/></g></g></g><g fill="#000000" fill-opacity="1"><g transform="translate(107.708729, 191.496863)"><g><path d="M 7.109375 0 L 5.296875 -2.625 L 3.296875 -2.625 L 3.296875 0 L 1.109375 0 L 1.109375 -9.421875 L 5.1875 -9.421875 C 6.019531 -9.421875 6.742188 -9.28125 7.359375 -9 C 7.972656 -8.71875 8.445312 -8.320312 8.78125 -7.8125 C 9.113281 -7.300781 9.28125 -6.695312 9.28125 -6 C 9.28125 -5.300781 9.113281 -4.695312 8.78125 -4.1875 C 8.445312 -3.6875 7.96875 -3.300781 7.34375 -3.03125 L 9.453125 0 Z M 7.078125 -6 C 7.078125 -6.53125 6.90625 -6.9375 6.5625 -7.21875 C 6.21875 -7.5 5.722656 -7.640625 5.078125 -7.640625 L 3.296875 -7.640625 L 3.296875 -4.359375 L 5.078125 -4.359375 C 5.722656 -4.359375 6.21875 -4.5 6.5625 -4.78125 C 6.90625 -5.070312 7.078125 -5.476562 7.078125 -6 Z M 7.078125 -6 "/></g></g></g><g fill="#000000" fill-opacity="1"><g transform="translate(122.245185, 191.496863)"><g><path d="M 8.40625 -1.75 L 8.40625 0 L 1.109375 0 L 1.109375 -9.421875 L 8.234375 -9.421875 L 8.234375 -7.671875 L 3.28125 -7.671875 L 3.28125 -5.625 L 7.65625 -5.625 L 7.65625 -3.921875 L 3.28125 -3.921875 L 3.28125 -1.75 Z M 8.40625 -1.75 "/></g></g></g><g fill="#000000" fill-opacity="1"><g transform="translate(135.921033, 191.496863)"><g><path d="M 9.6875 0 L 9.671875 -5.65625 L 6.90625 -1 L 5.921875 -1 L 3.15625 -5.53125 L 3.15625 0 L 1.109375 0 L 1.109375 -9.421875 L 2.921875 -9.421875 L 6.4375 -3.5625 L 9.921875 -9.421875 L 11.703125 -9.421875 L 11.734375 0 Z M 9.6875 0 "/></g></g></g><g fill="#000000" fill-opacity="1"><g transform="translate(153.415829, 191.496863)"><g><path d="M 1.109375 -9.421875 L 3.296875 -9.421875 L 3.296875 0 L 1.109375 0 Z M 1.109375 -9.421875 "/></g></g></g><g fill="#000000" fill-opacity="1"><g transform="translate(162.479366, 191.496863)"><g><path d="M 7.3125 -2.015625 L 2.953125 -2.015625 L 2.109375 0 L -0.125 0 L 4.078125 -9.421875 L 6.234375 -9.421875 L 10.4375 0 L 8.15625 0 Z M 6.625 -3.671875 L 5.140625 -7.28125 L 3.640625 -3.671875 Z M 6.625 -3.671875 "/></g></g></g><g fill="#000000" fill-opacity="1"><g transform="translate(177.43268, 191.496863)"><g><path d="M 9.75 -9.421875 L 9.75 0 L 7.578125 0 L 7.578125 -3.859375 L 3.296875 -3.859375 L 3.296875 0 L 1.109375 0 L 1.109375 -9.421875 L 3.296875 -9.421875 L 3.296875 -5.703125 L 7.578125 -5.703125 L 7.578125 -9.421875 Z M 9.75 -9.421875 "/></g></g></g><g fill="#000000" fill-opacity="1"><g transform="translate(192.950773, 191.496863)"><g/></g></g><g fill="#000000" fill-opacity="1"><g transform="translate(201.409184, 191.496863)"><g><path d="M 8.40625 -1.75 L 8.40625 0 L 1.109375 0 L 1.109375 -9.421875 L 8.234375 -9.421875 L 8.234375 -7.671875 L 3.28125 -7.671875 L 3.28125 -5.625 L 7.65625 -5.625 L 7.65625 -3.921875 L 3.28125 -3.921875 L 3.28125 -1.75 Z M 8.40625 -1.75 "/></g></g></g><g fill="#000000" fill-opacity="1"><g transform="translate(215.08503, 191.496863)"><g><path d="M 8.75 -1.78125 L 8.75 0 L 0.515625 0 L 0.515625 -1.40625 L 5.671875 -7.640625 L 0.625 -7.640625 L 0.625 -9.421875 L 8.546875 -9.421875 L 8.546875 -8 L 3.390625 -1.78125 Z M 8.75 -1.78125 "/></g></g></g><g fill="#000000" fill-opacity="1"><g transform="translate(228.760875, 191.496863)"><g><path d="M 8.40625 -1.75 L 8.40625 0 L 1.109375 0 L 1.109375 -9.421875 L 8.234375 -9.421875 L 8.234375 -7.671875 L 3.28125 -7.671875 L 3.28125 -5.625 L 7.65625 -5.625 L 7.65625 -3.921875 L 3.28125 -3.921875 L 3.28125 -1.75 Z M 8.40625 -1.75 "/></g></g></g><g fill="#000000" fill-opacity="1"><g transform="translate(242.43672, 191.496863)"><g><path d="M 4.546875 -3.703125 L 3.28125 -2.375 L 3.28125 0 L 1.109375 0 L 1.109375 -9.421875 L 3.28125 -9.421875 L 3.28125 -5.015625 L 7.453125 -9.421875 L 9.875 -9.421875 L 5.96875 -5.21875 L 10.109375 0 L 7.5625 0 Z M 4.546875 -3.703125 "/></g></g></g><g fill="#000000" fill-opacity="1"><g transform="translate(257.040408, 191.496863)"><g><path d="M 1.109375 -9.421875 L 3.296875 -9.421875 L 3.296875 0 L 1.109375 0 Z M 1.109375 -9.421875 "/></g></g></g><g fill="#000000" fill-opacity="1"><g transform="translate(266.10394, 191.496863)"><g><path d="M 8.40625 -1.75 L 8.40625 0 L 1.109375 0 L 1.109375 -9.421875 L 8.234375 -9.421875 L 8.234375 -7.671875 L 3.28125 -7.671875 L 3.28125 -5.625 L 7.65625 -5.625 L 7.65625 -3.921875 L 3.28125 -3.921875 L 3.28125 -1.75 Z M 8.40625 -1.75 "/></g></g></g><g fill="#000000" fill-opacity="1"><g transform="translate(279.779785, 191.496863)"><g><path d="M 1.109375 -9.421875 L 3.296875 -9.421875 L 3.296875 -1.78125 L 8.015625 -1.78125 L 8.015625 0 L 1.109375 0 Z M 1.109375 -9.421875 "/></g></g></g><g fill="#000000" fill-opacity="1"><g transform="translate(147.905587, 265.21944)"><g><path d="M 5.921875 -5.921875 L 5.921875 0 L 5.296875 0 L 5.296875 -2.734375 L 1.59375 -2.734375 L 1.59375 0 L 0.96875 0 L 0.96875 -5.921875 L 1.59375 -5.921875 L 1.59375 -3.28125 L 5.296875 -3.28125 L 5.296875 -5.921875 Z M 5.921875 -5.921875 "/></g></g></g><g fill="#000000" fill-opacity="1"><g transform="translate(160.695783, 265.21944)"><g><path d="M 0.96875 -5.921875 L 1.59375 -5.921875 L 1.59375 0 L 0.96875 0 Z M 0.96875 -5.921875 "/></g></g></g><g fill="#000000" fill-opacity="1"><g transform="translate(169.157625, 265.21944)"><g><path d="M 5.140625 -2.96875 L 5.734375 -2.96875 L 5.734375 -0.703125 C 5.460938 -0.460938 5.132812 -0.273438 4.75 -0.140625 C 4.375 -0.015625 3.976562 0.046875 3.5625 0.046875 C 2.96875 0.046875 2.429688 -0.0820312 1.953125 -0.34375 C 1.484375 -0.601562 1.113281 -0.960938 0.84375 -1.421875 C 0.570312 -1.878906 0.4375 -2.394531 0.4375 -2.96875 C 0.4375 -3.53125 0.570312 -4.039062 0.84375 -4.5 C 1.113281 -4.96875 1.484375 -5.332031 1.953125 -5.59375 C 2.429688 -5.851562 2.972656 -5.984375 3.578125 -5.984375 C 4.023438 -5.984375 4.4375 -5.910156 4.8125 -5.765625 C 5.195312 -5.617188 5.519531 -5.40625 5.78125 -5.125 L 5.390625 -4.71875 C 4.921875 -5.1875 4.320312 -5.421875 3.59375 -5.421875 C 3.113281 -5.421875 2.679688 -5.3125 2.296875 -5.09375 C 1.910156 -4.882812 1.609375 -4.59375 1.390625 -4.21875 C 1.171875 -3.84375 1.0625 -3.425781 1.0625 -2.96875 C 1.0625 -2.5 1.171875 -2.078125 1.390625 -1.703125 C 1.609375 -1.335938 1.910156 -1.046875 2.296875 -0.828125 C 2.679688 -0.617188 3.113281 -0.515625 3.59375 -0.515625 C 4.195312 -0.515625 4.710938 -0.664062 5.140625 -0.96875 Z M 5.140625 -2.96875 "/></g></g></g><g fill="#000000" fill-opacity="1"><g transform="translate(181.609003, 265.21944)"><g><path d="M 5.921875 -5.921875 L 5.921875 0 L 5.296875 0 L 5.296875 -2.734375 L 1.59375 -2.734375 L 1.59375 0 L 0.96875 0 L 0.96875 -5.921875 L 1.59375 -5.921875 L 1.59375 -3.28125 L 5.296875 -3.28125 L 5.296875 -5.921875 Z M 5.921875 -5.921875 "/></g></g></g><g fill="#000000" fill-opacity="1"><g transform="translate(194.399199, 265.21944)"><g><path d="M 9.109375 -5.921875 L 7.109375 0 L 6.4375 0 L 4.703125 -5.0625 L 2.96875 0 L 2.3125 0 L 0.3125 -5.921875 L 0.953125 -5.921875 L 2.671875 -0.828125 L 4.4375 -5.921875 L 5.015625 -5.921875 L 6.765625 -0.796875 L 8.5 -5.921875 Z M 9.109375 -5.921875 "/></g></g></g><g fill="#000000" fill-opacity="1"><g transform="translate(209.713556, 265.21944)"><g><path d="M 4.6875 -1.578125 L 1.375 -1.578125 L 0.671875 0 L 0.015625 0 L 2.734375 -5.921875 L 3.34375 -5.921875 L 6.0625 0 L 5.390625 0 Z M 4.453125 -2.09375 L 3.03125 -5.28125 L 1.609375 -2.09375 Z M 4.453125 -2.09375 "/></g></g></g><g fill="#000000" fill-opacity="1"><g transform="translate(221.690598, 265.21944)"><g><path d="M 3 -2.046875 L 3 0 L 2.375 0 L 2.375 -2.046875 L 0.015625 -5.921875 L 0.671875 -5.921875 L 2.703125 -2.59375 L 4.75 -5.921875 L 5.375 -5.921875 Z M 3 -2.046875 "/></g></g></g><g fill="#000000" fill-opacity="1"><g transform="translate(166.886547, 276.513167)"><g><path d="M 2.125 -5.390625 L 0.03125 -5.390625 L 0.03125 -5.921875 L 4.828125 -5.921875 L 4.828125 -5.390625 L 2.75 -5.390625 L 2.75 0 L 2.125 0 Z M 2.125 -5.390625 "/></g></g></g><g fill="#000000" fill-opacity="1"><g transform="translate(177.652325, 276.513167)"><g><path d="M 5.15625 -0.546875 L 5.15625 0 L 0.96875 0 L 0.96875 -5.921875 L 5.03125 -5.921875 L 5.03125 -5.390625 L 1.59375 -5.390625 L 1.59375 -3.28125 L 4.65625 -3.28125 L 4.65625 -2.75 L 1.59375 -2.75 L 1.59375 -0.546875 Z M 5.15625 -0.546875 "/></g></g></g><g fill="#000000" fill-opacity="1"><g transform="translate(189.222791, 276.513167)"><g><path d="M 3.546875 0.046875 C 2.953125 0.046875 2.421875 -0.0820312 1.953125 -0.34375 C 1.484375 -0.601562 1.113281 -0.960938 0.84375 -1.421875 C 0.570312 -1.878906 0.4375 -2.394531 0.4375 -2.96875 C 0.4375 -3.53125 0.570312 -4.039062 0.84375 -4.5 C 1.113281 -4.96875 1.484375 -5.332031 1.953125 -5.59375 C 2.429688 -5.851562 2.960938 -5.984375 3.546875 -5.984375 C 3.984375 -5.984375 4.390625 -5.90625 4.765625 -5.75 C 5.140625 -5.601562 5.457031 -5.390625 5.71875 -5.109375 L 5.3125 -4.71875 C 4.851562 -5.1875 4.269531 -5.421875 3.5625 -5.421875 C 3.09375 -5.421875 2.664062 -5.3125 2.28125 -5.09375 C 1.894531 -4.882812 1.59375 -4.59375 1.375 -4.21875 C 1.164062 -3.84375 1.0625 -3.425781 1.0625 -2.96875 C 1.0625 -2.5 1.164062 -2.078125 1.375 -1.703125 C 1.59375 -1.335938 1.894531 -1.046875 2.28125 -0.828125 C 2.664062 -0.617188 3.09375 -0.515625 3.5625 -0.515625 C 4.269531 -0.515625 4.851562 -0.75 5.3125 -1.21875 L 5.71875 -0.828125 C 5.457031 -0.535156 5.140625 -0.316406 4.765625 -0.171875 C 4.390625 -0.0234375 3.984375 0.046875 3.546875 0.046875 Z M 3.546875 0.046875 "/></g></g></g><g fill="#000000" fill-opacity="1"><g transform="translate(201.216777, 276.513167)"><g><path d="M 5.921875 -5.921875 L 5.921875 0 L 5.296875 0 L 5.296875 -2.734375 L 1.59375 -2.734375 L 1.59375 0 L 0.96875 0 L 0.96875 -5.921875 L 1.59375 -5.921875 L 1.59375 -3.28125 L 5.296875 -3.28125 L 5.296875 -5.921875 Z M 5.921875 -5.921875 "/></g></g></g></svg>